<svg width="354" height="354" viewBox="0 0 354 354" fill="none" xmlns="http://www.w3.org/2000/svg">
<g clip-path="url(#clip0_6025_40261)">
<path fill-rule="evenodd" clip-rule="evenodd" d="M172.167 0.0911781C154.09 1.15624 142.086 3.04587 128.11 7.02591C81.1145 20.4079 40.835 53.7481 18.9309 97.3953C14.413 106.398 11.7538 112.831 8.64866 122.267C2.19976 141.866 -0.633893 162.336 0.118307 183.891C1.49627 223.376 16.1416 261.032 41.983 291.535C64.8942 318.58 96.074 338.461 130.159 347.76C166.579 357.696 205.954 355.714 240.771 342.19C268.295 331.499 293.081 313.907 311.799 291.778C313.821 289.387 315.791 287.013 316.176 286.503C325.048 274.741 328.91 268.742 334.353 258.263C348.431 231.158 354.982 201.603 353.881 170.15C352.584 133.072 339.261 96.9228 316.106 67.657C305.632 54.4174 293.169 42.5793 279.335 32.7281C271.081 26.8505 265.021 23.2849 254.551 18.1457C238.903 10.4655 224.982 5.93794 207.27 2.76851C197.083 0.94545 179.903 -0.364767 172.167 0.0911781ZM183.988 4.16462C216.596 5.73359 245.159 14.8647 271.923 32.2776C288.344 42.9604 304.489 58.2106 316.424 74.3103C335.043 99.4263 346.208 128.644 349.517 160.918C350.424 169.764 350.338 185.779 349.336 194.917C347 216.21 341.787 234.374 332.645 253.073C313.153 292.942 279.112 323.776 237.357 339.385C223.077 344.723 208.429 348.012 191.867 349.598C185.862 350.174 167.735 350.169 161.959 349.591C145.08 347.902 130.866 344.7 116.647 339.385C93.2333 330.632 72.2021 317.139 54.664 299.615C30.8113 275.783 14.4033 245.681 7.54504 213.169C2.12525 187.476 2.56403 160.837 8.82271 135.603C13.6962 115.953 21.4751 98.2394 32.5937 81.4725C39.3474 71.288 44.9989 64.4428 54.7589 54.6267C77.7823 31.4708 106.783 15.4355 138.497 8.32536C150.748 5.57863 158.658 4.63237 175.749 3.86793C176.34 3.84145 180.048 3.97494 183.988 4.16462ZM162.854 13.3927C158.914 13.6854 155.637 13.97 155.571 14.0251C155.505 14.0801 155.567 15.039 155.706 16.1552L155.96 18.1851L159.616 17.936L163.273 17.6873L163.923 27.6573C164.281 33.1408 164.67 37.7292 164.789 37.8541C164.907 37.9786 166.052 37.9786 167.334 37.8541L169.665 37.6272L168.977 27.6941C168.599 22.231 168.403 17.6483 168.541 17.5101C168.679 17.3723 170.317 17.193 172.181 17.1115L175.57 16.9633V14.8589V12.7542L172.794 12.8076C171.268 12.8365 166.794 13.0999 162.854 13.3927ZM187.612 16.7357C187.478 18.7778 187.038 24.2892 186.638 28.9832C186.236 33.6773 185.959 37.5613 186.022 37.6147C186.085 37.668 187.204 37.7929 188.509 37.8927L190.881 38.0742L191.082 36.1273C191.712 30.0253 192.854 13.7996 192.667 13.6121C192.544 13.4903 191.413 13.3079 190.151 13.2069L187.857 13.023L187.612 16.7357ZM207.449 15.8664C207.449 16.0034 206.212 21.3169 204.7 27.6737C203.188 34.0308 202.044 39.3246 202.157 39.4377C202.529 39.81 206.548 40.6281 206.773 40.3776C206.892 40.2426 207.443 38.1193 207.996 35.6589C208.548 33.1984 209.123 31.0443 209.273 30.8717C209.425 30.6971 211.62 31.0532 214.234 31.677C216.814 32.2922 219.144 32.7958 219.412 32.7958C219.828 32.7958 220.702 30.4065 220.702 29.2681C220.702 29.077 218.486 28.4056 215.777 27.776C213.068 27.1465 210.722 26.5117 210.563 26.3656C210.308 26.1301 211.136 21.6841 211.564 20.9927C211.655 20.8453 214.272 21.3406 217.38 22.0936C220.487 22.8465 223.2 23.4689 223.407 23.4764C223.758 23.4897 224.714 19.8944 224.438 19.5988C224.282 19.4317 208.512 15.6488 207.897 15.6305C207.651 15.6233 207.449 15.7293 207.449 15.8664ZM133.304 18.6253C122.896 21.4504 122.901 21.4487 123.083 22.0299C123.181 22.3412 124.396 26.6222 125.783 31.5431C127.17 36.4641 128.624 41.565 129.015 42.8788L129.725 45.267L131.783 44.7026C132.915 44.3919 133.954 44.0412 134.092 43.9234C134.23 43.8057 133.784 41.7271 133.1 39.3039C132.416 36.8807 131.931 34.7763 132.024 34.627C132.116 34.4778 133.713 33.9743 135.572 33.508C139.975 32.4035 140.353 32.6061 141.727 36.808C142.261 38.4396 142.919 40.1274 143.189 40.5586L143.679 41.3427L146.029 40.6918C147.322 40.3335 148.48 39.9399 148.604 39.8167C148.727 39.6936 148.501 39.2308 148.102 38.7889C147.704 38.3469 146.956 36.6087 146.441 34.9266C145.468 31.7482 144.663 30.6388 142.833 29.9455L141.796 29.553L142.54 28.7585C145.361 25.7493 143.983 20.2705 139.945 18.4374C138.076 17.5889 137.01 17.6193 133.304 18.6253ZM138.058 23.0441C139.587 24.7316 139.64 27.3727 138.164 28.3387C137.418 28.8271 131.803 30.6238 130.967 30.6409C130.62 30.6481 128.763 24.2946 129.049 24.0752C129.123 24.0179 130.393 23.6357 131.871 23.2256C135.3 22.2743 137.308 22.2152 138.058 23.0441ZM236.169 25.1907C235.969 25.7322 234.972 28.188 233.953 30.6484C230.57 38.8146 227.507 46.4705 227.507 46.7575C227.507 46.9136 227.951 47.2024 228.492 47.3993C229.035 47.5961 230.061 48.008 230.775 48.3143L232.071 48.8712L232.979 46.4702C233.478 45.1496 235.424 40.3224 237.302 35.7433C239.179 31.1642 240.818 27.0954 240.943 26.702C241.132 26.1062 240.851 25.8385 239.263 25.1002C236.857 23.9807 236.613 23.9878 236.169 25.1907ZM104.29 29.6131C102.418 30.6045 99.0333 32.3949 96.7677 33.5924C94.5021 34.7898 92.5905 35.8163 92.5189 35.8736C92.4481 35.9308 93.3995 37.8788 94.6341 40.2025C95.8688 42.5259 97.5186 45.6349 98.2998 47.1111C102.541 55.1181 103.666 57.1462 103.966 57.3323C104.277 57.5241 107.773 55.7652 116.289 51.1327C118.259 50.0609 119.939 49.1199 120.022 49.0412C120.198 48.8741 118.576 45.3217 118.324 45.3217C118.23 45.3217 115.528 46.6906 112.318 48.3637C109.109 50.0368 106.403 51.4057 106.303 51.4057C106.107 51.4057 103.187 45.9466 103.315 45.8199C103.358 45.7766 105.571 44.5848 108.23 43.1708C110.89 41.7572 113.212 40.4612 113.391 40.2913C113.749 39.9528 112.201 36.7325 111.683 36.7325C111.512 36.7325 109.115 37.9439 106.354 39.4245C101.695 41.9236 101.302 42.071 100.866 41.4824C100.206 40.5905 98.7644 37.4748 98.9458 37.3312C99.0285 37.2657 101.433 35.9652 104.29 34.4413C107.147 32.9175 109.608 31.55 109.76 31.4021C110.139 31.035 108.661 27.7822 108.124 27.7982C107.886 27.8054 106.161 28.6221 104.29 29.6131ZM252.325 36.4641C246.938 45.1897 242.535 52.4654 242.354 52.9346C242.224 53.2725 244.395 54.782 249.253 57.7321C256.783 62.3048 257.971 62.9861 258.089 62.7976C258.13 62.7325 258.62 61.9673 259.178 61.0969C260.388 59.2119 260.939 59.7935 253.835 55.4538C251.077 53.7693 248.758 52.3355 248.682 52.2679C248.507 52.1115 251.411 47.2124 251.833 46.9515C252.007 46.8441 254.379 48.1278 257.104 49.8042L262.059 52.852L262.654 52.0632C262.982 51.6291 263.513 50.8299 263.833 50.2873L264.417 49.3007L259.404 46.327C256.648 44.6915 254.388 43.1551 254.382 42.9128C254.376 42.6708 254.946 41.5765 255.647 40.4813L256.922 38.4897L258.243 39.2928C258.97 39.7344 261.465 41.2676 263.787 42.7002L268.01 45.3045L269.071 43.6325C269.655 42.7131 270.132 41.8449 270.132 41.7035C270.132 41.5617 269.447 41.0576 268.61 40.5822C267.773 40.107 264.406 38.0803 261.128 36.0779C257.85 34.0759 255.088 32.4379 254.989 32.4379C254.89 32.4379 253.691 34.2499 252.325 36.4641ZM166.436 45.0125C129.934 48.1515 96.5418 65.6943 74.2208 93.4576C58.0177 113.611 48.6392 135.576 45.3392 161.097C44.5705 167.042 44.2797 181.02 44.7955 187.223C47.0915 214.834 56.8884 239.29 74.3283 260.947C77.8693 265.344 86.2766 273.97 90.1411 277.171C91.717 278.475 93.0877 279.628 93.1863 279.731C94.8776 281.498 105.455 288.85 110.59 291.827C126.734 301.188 146.372 307.391 165.182 309.07C170.482 309.544 183.523 309.544 188.823 309.07C235.253 304.924 276.075 276.637 296.49 234.463C302.416 222.221 306.212 209.795 308.244 195.991C310.175 182.877 309.853 166.171 307.418 153.023C302.074 124.171 286.784 97.101 265.117 78.1358C245.485 60.9495 223.022 50.3028 197.778 46.219C188.84 44.7727 175.287 44.2513 166.436 45.0125ZM76.1719 48.1447C71.6132 49.3254 67.7129 53.5398 67.2257 57.8104C66.6462 62.8899 70.6776 69.2545 76.351 72.2164C78.5983 73.3895 82.6292 73.4056 84.9751 72.2508C89.0656 70.2365 91.3964 66.8975 91.3925 63.0563C91.3909 60.6782 90.9533 58.7177 90.1936 57.6795C89.7259 57.0406 89.6089 57.0854 87.8493 58.5677C86.5248 59.6836 86.0697 60.2877 86.2519 60.6879C86.3927 60.9956 86.5749 62.0092 86.6568 62.9397C86.8533 65.1628 85.851 66.8249 83.6808 67.8745C82.4677 68.4615 81.743 68.5899 80.6682 68.4085C76.7053 67.7396 72.0627 62.1863 72.0548 58.1046C72.0512 56.4376 72.9983 54.7216 74.4422 53.7775C76.4731 52.4497 77.4818 52.3126 79.3018 53.1168L80.883 53.8157L82.7374 52.2199C83.7564 51.3424 84.4986 50.4749 84.3856 50.2923C84.2727 50.1099 83.408 49.5695 82.4637 49.0917C80.564 48.1297 77.8224 47.7171 76.1719 48.1447ZM275.855 58.4787C272.018 62.5263 268.237 66.5632 267.453 67.4493L266.027 69.0605L270.318 73.1598C275.553 78.1601 277.339 79.1436 280.697 78.8745C284.912 78.5363 290.06 74.8253 292.481 70.379C293.926 67.7274 294.166 64.3858 293.087 61.9479C292.153 59.8411 292.139 59.8246 286.959 54.9792L282.831 51.1191L275.855 58.4787ZM288.093 61.9634C289.767 63.8311 289.267 66.71 286.757 69.6682C283.609 73.3777 280.5 74.8203 277.869 73.7933C276.31 73.1845 272.508 69.8726 272.702 69.2928C272.766 69.1039 275.235 66.375 278.19 63.2289L283.561 57.5088L285.506 59.3784C286.576 60.4062 287.74 61.5697 288.093 61.9634ZM185.769 83.8009C206.526 86.5192 225.077 97.8854 237.301 115.374C238.022 116.406 238.611 117.405 238.611 117.594C238.611 117.783 237.952 117.89 237.148 117.83C235.755 117.726 235.552 117.548 232.97 114.178C230.226 110.596 223.139 103.217 221.331 102.059L220.349 101.431L216.783 103.707C214.822 104.959 213.272 106.151 213.338 106.355C213.404 106.56 214.422 108.01 215.601 109.576C217.842 112.556 220.702 117.044 220.702 117.583C220.702 117.876 217.915 117.861 217.712 117.569C217.661 117.495 216.537 115.825 215.214 113.857C213.892 111.888 212.284 109.668 211.641 108.922L210.471 107.567L207.438 108.977C205.769 109.753 203.115 110.833 201.539 111.377C199.962 111.922 198.632 112.395 198.582 112.428C198.531 112.461 198.891 113.591 199.38 114.939C199.869 116.288 200.183 117.477 200.078 117.583C199.973 117.688 199.335 117.79 198.661 117.808C197.466 117.841 197.415 117.784 196.682 115.581C196.267 114.337 195.871 113.32 195.801 113.32C195.731 113.32 194.334 113.644 192.696 114.041C189.466 114.822 181.802 115.825 179.064 115.825C177.403 115.825 177.361 115.852 177.361 116.92C177.361 117.967 177.301 118.011 176.018 117.904C174.851 117.808 174.66 117.664 174.561 116.809C174.457 115.902 174.325 115.825 172.874 115.825C169.924 115.825 163.936 115.048 160.224 114.182C158.185 113.707 156.402 113.391 156.259 113.48C156.116 113.568 155.694 114.534 155.322 115.627C154.951 116.719 154.398 117.682 154.094 117.767C153.635 117.896 151.957 117.822 151.668 117.66C151.623 117.635 152.007 116.481 152.521 115.096C153.035 113.711 153.393 112.531 153.319 112.473C153.244 112.414 151.894 111.918 150.317 111.369C148.741 110.82 146.185 109.746 144.636 108.982C143.088 108.218 141.704 107.594 141.561 107.594C141.244 107.594 137.126 113.097 135.336 115.915C134.17 117.749 133.899 117.972 132.83 117.972C132.171 117.972 131.536 117.876 131.419 117.759C130.997 117.337 135.935 109.656 138.216 107.19L139.085 106.249L135.465 103.88C133.475 102.576 131.725 101.51 131.576 101.51C130.885 101.51 124.562 107.48 122.062 110.493C118.724 114.516 118.664 114.592 117.555 116.183C117.075 116.872 116.533 117.538 116.35 117.664C116.095 117.839 114.036 117.823 113.321 117.64C113.264 117.626 113.861 116.669 114.646 115.513C125.765 99.1534 143.424 87.7299 162.842 84.3339C168.187 83.3992 168.427 83.3801 175.462 83.3149C179.249 83.2799 183.22 83.4668 185.769 83.8009ZM170.531 86.1214C167.099 86.384 161.149 87.2964 159.816 87.765C158.52 88.22 165.2 91.359 169.712 92.4139C172.789 93.1322 180.763 92.9429 183.988 92.0742C186.505 91.3956 192.27 88.5605 192.13 88.0696C191.761 86.7753 178.097 85.5431 170.531 86.1214ZM151.034 90.3814C149.063 91.1323 145.92 92.5133 144.049 93.4512C139.735 95.6126 133.888 99.3754 134.267 99.7445C134.427 99.8988 135.999 100.927 137.762 102.03L140.966 104.034L143.135 101.94C147.31 97.9069 151.926 94.6421 156.649 92.3781L159.041 91.2318L157.445 90.1077C156.567 89.4896 155.571 88.9908 155.232 89.0004C154.893 89.0091 153.004 89.6312 151.034 90.3814ZM194.498 90.0823L192.83 91.1721L196.701 93.1617C201.026 95.3851 204.692 97.9991 208.537 101.601L211.118 104.019L212.417 103.238C213.133 102.809 214.65 101.814 215.791 101.027C217.474 99.8662 217.778 99.5106 217.404 99.1455C216.424 98.1917 210.34 94.5808 207.091 93.0256C203.685 91.3964 197.406 88.9797 196.596 88.9876C196.359 88.99 195.415 89.4825 194.498 90.0823ZM159.008 94.3279C155.097 96.0406 149.689 99.6474 146.192 102.876L143.518 105.343L144.998 106.098C146.984 107.111 153.62 109.741 154.187 109.741C154.437 109.741 155.177 108.653 155.831 107.325C157.693 103.545 160.763 99.0603 163.25 96.4869L165.525 94.1322L164.189 93.6549C163.455 93.3924 162.693 93.1275 162.496 93.067C162.299 93.0065 160.73 93.5737 159.008 94.3279ZM187.885 93.5881L186.409 94.1728L188.51 96.2482C190.883 98.5918 195.03 104.655 196.35 107.709C196.833 108.827 197.421 109.741 197.658 109.741C198.271 109.741 203.248 107.856 206.185 106.511L208.683 105.366L206.723 103.609C202.842 100.129 198.622 97.1949 194.743 95.2769C192.57 94.203 190.47 93.2523 190.077 93.1641C189.683 93.075 188.696 93.2659 187.885 93.5881ZM167.366 96.5099C165.281 98.1614 163.523 100.112 161.699 102.797C159.861 105.503 157.174 110.448 157.412 110.687C158.171 111.445 173.76 113.578 174.336 113.002C174.423 112.914 174.495 109.03 174.495 104.372V95.9006L171.754 95.553L169.012 95.2061L167.366 96.5099ZM179.958 95.5673L177.361 95.9054V104.433V112.962L179.779 112.955C183.765 112.944 193.75 111.364 194.5 110.627C194.73 110.402 192.008 105.357 190.27 102.787C188.396 100.017 184.861 96.3182 183.45 95.6532C182.802 95.3469 181.836 95.3239 179.958 95.5673ZM163.749 124.065C168.83 124.511 172.243 125.417 176.603 127.478C178.452 128.352 180.023 129.067 180.095 129.067C180.167 129.067 180.227 128.342 180.227 127.456V125.846H187.211H194.196V136.761V147.677H187.657H181.12L178.597 145.255C174.227 141.057 169.298 139.053 162.092 138.543C158.944 138.32 158.292 138.376 156.912 138.988C156.042 139.372 155.112 139.953 154.844 140.277C154.092 141.188 154.626 142.44 156.127 143.28C156.871 143.698 163.042 145.676 169.839 147.677C177.847 150.034 183.078 151.771 184.704 152.61C188.03 154.329 192.602 158.825 194.152 161.901C197.881 169.299 196.811 177.671 191.387 183.542C188.711 186.437 186.028 188.125 181.958 189.471C173.332 192.325 163.325 191.569 153.957 187.357C151.821 186.397 149.927 185.612 149.748 185.612C149.569 185.612 149.422 186.486 149.422 187.555C149.422 189.072 149.293 189.522 148.833 189.613C148.508 189.676 145.365 189.681 141.848 189.623L135.452 189.518V177.723V165.929L141.81 165.939L148.168 165.947L149.394 167.752C151.019 170.145 153.001 171.795 156.049 173.289C161.14 175.786 167.596 176.799 172.074 175.803C176.162 174.894 177.409 172.999 174.97 171.402C174.473 171.077 168.217 169.016 161.068 166.823C146.379 162.316 144.186 161.321 140.148 157.322C136.323 153.533 134.736 149.753 134.736 144.43C134.736 140.706 135.243 138.299 136.653 135.33C138.975 130.443 143.312 127.045 149.669 125.132C151.842 124.478 153.443 124.244 159.093 123.751C159.388 123.726 161.484 123.867 163.749 124.065ZM238.444 124.081C251.972 125.96 261.344 132.279 265.114 142.061C267.011 146.982 267.449 149.993 267.416 157.876C267.389 164.449 267.309 165.327 266.432 168.605C265.031 173.837 262.456 178.815 259.671 181.676C256.111 185.331 253.678 186.78 247.581 188.872C242.889 190.482 239.065 191.075 233.418 191.068C222.03 191.053 212.958 187.821 206.547 181.497C204.071 179.053 203.377 178.083 201.811 174.876C199.318 169.77 198.493 166.289 198.24 159.815C197.689 145.698 202.13 135.014 210.786 129.637C218.131 125.074 229.359 122.818 238.444 124.081ZM131.154 132.461V140.519H126.497H121.841V157.161V173.802H126.497H131.154V181.676V189.549L111.543 189.579C100.757 189.594 91.4887 189.64 90.947 189.68L89.9621 189.752V181.966V174.182L94.5291 174.081L99.0961 173.981L99.1892 157.25L99.2823 140.519H94.6222H89.9621V132.478V124.437L110.559 124.42L131.154 124.404V132.461ZM230.775 140.206C228.495 140.585 226.208 141.561 225.094 142.633C223.358 144.299 222.825 146.355 222.17 153.904C221.793 158.236 222.089 162.216 223.193 167.673C223.839 170.867 223.994 171.212 225.317 172.398C227.88 174.698 232.737 175.522 237.086 174.396C241.379 173.283 243.048 170.891 243.618 165.028C244.313 157.881 243.9 149.005 242.688 145.058C242.361 143.995 240.384 141.956 238.992 141.246C237.81 140.644 234.012 139.743 233.083 139.845C232.873 139.868 231.834 140.03 230.775 140.206ZM119.012 200.554C121.693 204.09 128.078 210.774 130.518 212.6L131.852 213.598L135.432 211.326C137.402 210.076 139.019 208.922 139.024 208.761C139.03 208.601 138.323 207.596 137.453 206.53C135.945 204.68 133.633 201.298 131.9 198.407L131.096 197.065H132.708C134.187 197.065 134.386 197.176 135.133 198.407C135.788 199.488 139.696 204.879 141.372 207.015C141.668 207.39 142.357 207.197 144.814 206.053C146.504 205.265 149.185 204.174 150.771 203.627L153.655 202.633L152.638 199.849L151.621 197.065H153.121H154.622L155.457 199.391C155.916 200.67 156.345 201.717 156.41 201.717C156.475 201.717 158.366 201.32 160.612 200.835C162.858 200.35 166.901 199.754 169.595 199.51L174.495 199.069V198.067C174.495 197.137 174.598 197.065 175.928 197.065C177.282 197.065 177.361 197.125 177.361 198.138C177.361 199.164 177.43 199.212 178.894 199.212C181.403 199.212 189.139 200.26 192.365 201.037C194.017 201.436 195.489 201.63 195.635 201.471C195.78 201.311 196.223 200.295 196.617 199.212C197.316 197.298 197.376 197.241 198.81 197.134C199.621 197.073 200.285 197.104 200.285 197.203C200.285 197.301 199.861 198.524 199.343 199.921C198.825 201.317 198.463 202.502 198.537 202.554C198.612 202.606 200.124 203.185 201.897 203.84C203.67 204.497 206.205 205.576 207.529 206.239C208.854 206.901 210.009 207.443 210.095 207.443C210.537 207.443 215.868 200.212 216.908 198.202C217.436 197.181 217.661 197.065 219.1 197.065C219.981 197.065 220.702 197.142 220.702 197.238C220.702 197.683 217.485 202.598 215.208 205.629C213.639 207.72 212.843 209.061 213.118 209.153C213.363 209.235 215.025 210.259 216.811 211.432C220.021 213.538 220.069 213.555 221.007 212.964C222.762 211.857 231.249 202.99 233.402 200.014C235.503 197.109 235.559 197.065 237.073 197.065C237.919 197.065 238.611 197.165 238.611 197.288C238.611 197.674 235.35 202.146 233.031 204.938C226.509 212.79 218.35 219.219 209.014 223.863C202.466 227.12 197.393 228.829 189.797 230.335C162.644 235.718 133.562 224.524 116.847 202.254C115.518 200.483 114.145 198.591 113.796 198.049L113.162 197.065H114.764H116.366L119.012 200.554ZM167.331 202.455C166.051 202.614 163.348 203.102 161.325 203.54C157.129 204.447 157.221 204.26 159.197 207.801C160.935 210.919 162.834 213.611 164.854 215.818C166.802 217.949 169.401 219.934 170.018 219.765C170.215 219.711 171.303 219.562 172.435 219.435L174.495 219.202V210.639V202.075L172.077 202.12C170.748 202.146 168.612 202.296 167.331 202.455ZM177.361 210.625V219.175L179.779 219.532C182.733 219.969 183.296 219.693 186.712 216.14C189.404 213.339 191.405 210.492 193.235 206.86L194.519 204.308L190.866 203.556C186.569 202.67 181.9 202.075 179.25 202.075H177.361V210.625ZM153.541 205.551C152.052 205.91 144.049 209.324 144.049 209.6C144.049 210.064 148.087 213.584 151.111 215.754C153.915 217.766 159.212 220.587 161.669 221.376C162.695 221.706 163.317 221.703 164.449 221.364L165.907 220.927L163.446 218.39C160.874 215.74 157.82 211.341 155.908 207.533C155.29 206.303 154.666 205.314 154.521 205.338C154.376 205.361 153.935 205.457 153.541 205.551ZM195.876 207.891C193.916 211.819 191.801 214.844 188.847 217.936C185.984 220.933 185.955 221.149 188.35 221.61C190.571 222.038 199.12 217.536 204.046 213.345C206.801 211.001 207.807 210.013 207.807 209.65C207.807 209.173 198.556 205.296 197.418 205.296C197.281 205.296 196.588 206.464 195.876 207.891ZM138.163 212.808C133.829 215.508 133.88 215.287 137.128 217.366C142.713 220.939 146.513 222.782 152.906 225.018L155.853 226.048L157.402 225.067C158.254 224.527 159.023 223.974 159.111 223.839C159.2 223.703 157.699 222.787 155.776 221.803C151.424 219.575 147.439 216.789 143.948 213.531C142.469 212.152 141.201 211.026 141.132 211.03C141.061 211.034 139.726 211.834 138.163 212.808ZM207.728 213.737C203.861 217.296 200.673 219.515 196.127 221.812L192.43 223.68L194.256 224.908L196.081 226.136L200.242 224.62C202.532 223.785 205.993 222.308 207.934 221.335C211.736 219.431 217.481 215.865 217.474 215.414C217.471 215.262 216.302 214.39 214.876 213.477C210.472 210.655 211.102 210.632 207.728 213.737ZM169.832 222.653C168.548 222.942 166.475 223.579 165.227 224.068C162.822 225.01 159.656 226.736 159.896 226.975C160.155 227.234 165.658 228.161 169.198 228.542C175.663 229.238 184.621 228.743 190.613 227.358L192.584 226.902L189.719 225.446C185.056 223.078 182.533 222.45 177.002 222.278C173.564 222.17 171.492 222.279 169.832 222.653ZM166.257 247.9V261.39L164.466 261.431L162.675 261.471V251.994V242.516L160.436 242.465C156.06 242.367 156.407 242.501 156.407 240.905V239.474L158.485 239.251C160.88 238.994 162.048 238.138 163.06 235.895C163.633 234.625 163.85 234.461 164.981 234.437L166.257 234.41V247.9ZM240.224 247.912V261.305H238.432H236.641L236.462 251.821L236.283 242.337H233.418H230.552V240.905V239.474L232.364 239.291C234.617 239.065 235.742 238.349 236.648 236.566C237.711 234.474 237.789 234.406 239.051 234.465L240.224 234.52V247.912ZM103.821 235.549C107.258 237.26 108.667 240.52 108.691 246.81C108.719 254.265 106.712 259.139 102.782 261.159C101.277 261.933 97.1479 262.102 95.4479 261.461C93.3486 260.669 91.0655 257.571 91.0448 255.489C91.0377 254.763 91.2087 254.684 92.7878 254.684C94.4997 254.684 94.5443 254.712 94.7702 255.915C95.1202 257.777 96.7565 258.978 98.9434 258.978C100.46 258.978 100.903 258.801 102.118 257.704C103.57 256.393 104.347 254.657 104.961 251.351L105.28 249.627L104.517 250.325C102.117 252.513 98.2266 252.976 95.1274 251.441C89.1865 248.499 89.3114 238.489 95.3262 235.448C97.6475 234.275 101.351 234.319 103.821 235.549ZM124.715 235.448C126.7 236.451 128.301 238.534 129.205 241.291C130.2 244.322 130.2 252.163 129.205 255.193C128.352 257.792 126.747 259.96 124.869 261.048C123.656 261.75 123.039 261.853 120.556 261.765C118.058 261.677 117.46 261.525 116.207 260.656C114.507 259.479 112.799 256.5 112.209 253.683C111.696 251.231 111.699 245.231 112.215 242.802C112.965 239.27 115.241 235.956 117.543 235.042C119.259 234.363 122.985 234.574 124.715 235.448ZM145.819 235.348C147.739 236.326 149.271 238.317 150.224 241.072C151.336 244.284 151.398 251.964 150.339 255.193C149.486 257.792 147.881 259.96 146.002 261.048C144.789 261.75 144.173 261.853 141.695 261.765C137.981 261.634 136.455 260.724 134.845 257.68C133.462 255.065 132.89 252.336 132.877 248.29C132.856 241.486 134.894 236.707 138.485 235.144C140.19 234.401 144.181 234.513 145.819 235.348ZM198.774 235.198C201.75 236.441 203.488 239.169 203.501 242.62C203.514 246.205 202.049 248.238 197.599 250.809C196.219 251.606 194.222 252.764 193.16 253.382C191.442 254.38 189.181 256.779 189.181 257.601C189.181 257.768 192.405 257.905 196.345 257.905H203.509V259.701V261.496L194.465 261.401L185.42 261.305L185.303 260.28C185.124 258.721 186.223 255.785 187.731 253.789C188.681 252.533 189.979 251.475 192.088 250.238C198.292 246.597 198.561 246.392 199.296 244.732C200.754 241.44 199.035 238.202 195.554 237.683C192.233 237.187 190.142 238.94 189.576 242.695C189.362 244.114 189.345 244.128 187.659 244.236L185.957 244.345V243.13C185.957 241.483 186.782 238.863 187.708 237.563C188.98 235.777 191.741 234.642 194.815 234.642C196.38 234.642 197.981 234.867 198.774 235.198ZM220.464 235.716C223 237.433 224.454 240.583 225.024 245.595C225.589 250.56 224.58 255.769 222.456 258.854C221.046 260.901 218.988 261.842 215.918 261.842C211.683 261.842 209.156 259.805 207.705 255.221C207.062 253.191 206.912 251.867 206.912 248.242C206.912 242.994 207.752 239.658 209.649 237.37C211.367 235.299 213.154 234.601 216.43 234.721C218.628 234.803 219.393 234.992 220.464 235.716ZM265.834 236.79V238.579H260.135H254.437L254.034 241.174C253.435 245.04 253.39 245.379 253.471 245.379C253.512 245.379 254.094 245.097 254.765 244.753C256.545 243.838 260.556 243.921 262.431 244.911C265.739 246.658 267.088 248.924 267.088 252.741C267.088 256.232 265.695 259.018 263.17 260.577C261.499 261.61 261.225 261.663 257.565 261.663C253.871 261.663 253.655 261.62 252.164 260.587C250.601 259.503 249.157 257.186 248.932 255.4C248.825 254.551 248.911 254.505 250.588 254.505C252.273 254.505 252.37 254.559 252.65 255.639C253.447 258.711 258.227 260.005 261.137 257.934C263.373 256.344 264.102 251.988 262.521 249.673C260.506 246.724 255.814 246.326 253.51 248.909C253.009 249.471 252.411 249.673 251.256 249.673H249.683L249.873 248.51C249.978 247.871 250.393 244.932 250.793 241.979C251.195 239.026 251.603 236.248 251.701 235.806C251.878 235.004 251.911 235 258.856 235H265.834V236.79ZM97.2458 238.227C95.2777 239.224 94.4376 240.909 94.4464 243.841C94.4536 246.402 95.1663 247.678 97.1511 248.689C100.922 250.61 104.648 247.896 104.646 243.232C104.645 240.053 103.086 238.121 100.171 237.686C99.1065 237.527 98.3547 237.666 97.2458 238.227ZM118.981 238.115C118.287 238.473 117.383 239.385 116.946 240.17C114.94 243.77 114.896 252.335 116.864 256.189C118.716 259.815 123.081 259.753 124.978 256.073C126.744 252.645 126.786 244.1 125.053 240.525C123.787 237.91 121.296 236.921 118.981 238.115ZM139.855 238.189C137.081 239.927 135.759 246.468 136.918 252.728C137.688 256.892 139.327 258.8 142.133 258.8C144.207 258.8 145.998 257.088 146.807 254.332C147.523 251.888 147.6 245.682 146.949 242.732C146.044 238.625 142.638 236.444 139.855 238.189ZM214.075 238.096C212.098 239.195 211.284 240.815 210.669 244.866C209.613 251.826 211.656 258.169 215.167 258.827C217.203 259.208 218.9 258.105 220.165 255.579C221.211 253.488 221.239 253.295 221.236 248.242C221.234 243.381 221.174 242.925 220.285 241.025C219.763 239.91 218.935 238.735 218.445 238.415C217.107 237.538 215.315 237.408 214.075 238.096ZM180.943 243.59V245.737H178.973H177.002V243.59V241.442H178.973H180.943V243.59ZM180.943 259.355V261.521L178.973 261.441L177.002 261.362V259.275V257.189H178.973H180.943V259.355ZM278.833 276.195C277.825 277.06 276.901 277.995 276.78 278.272C276.658 278.549 277.289 281.07 278.181 283.875C279.074 286.681 279.803 289.14 279.803 289.341C279.803 289.541 277.437 288.739 274.543 287.559C270.911 286.077 269.092 285.503 268.666 285.706C267.869 286.085 264.661 289.061 264.848 289.249C264.926 289.327 268.606 290.609 273.024 292.098C281.896 295.087 280.864 294.458 285.835 299.914C286.691 300.854 287.485 301.528 287.6 301.412C287.715 301.296 288.507 300.609 289.359 299.883C290.21 299.158 290.908 298.451 290.908 298.314C290.908 298.175 289.557 296.582 287.905 294.773L284.904 291.483L282.871 283.373C281.754 278.912 280.799 275.118 280.751 274.942C280.704 274.766 279.84 275.329 278.833 276.195ZM82.2608 286.42C78.724 287.205 75.4182 289.765 72.6806 293.84C70.3398 297.323 69.8358 301.848 71.4395 304.979C73.22 308.453 76.9309 311.133 80.4264 311.467C82.5918 311.674 85.8446 310.67 87.4873 309.289L88.5437 308.401L86.5995 306.935L84.6553 305.467L83.2839 306.201C80.7287 307.57 78.0975 306.868 76.2048 304.314C75.1575 302.9 75.2101 299.799 76.317 297.669C77.3866 295.611 80.1074 292.728 81.7907 291.87C83.75 290.871 86.2933 290.964 87.8334 292.091C89.9637 293.651 90.7998 295.965 89.9963 298.077C89.7076 298.836 89.8874 299.094 91.6558 300.461C93.8195 302.134 93.9516 302.104 94.6158 299.778C95.2507 297.551 95.0526 294.892 94.1123 293.038C91.8634 288.605 86.3338 285.517 82.2608 286.42ZM253.03 296.951L251.151 298.046L252.014 299.538C254.911 304.555 259.405 312.763 259.308 312.86C259.244 312.922 255.434 310.713 250.84 307.947L242.487 302.92L240.639 303.902C239.622 304.442 238.595 305.064 238.357 305.283C238.023 305.59 239.3 308.13 243.862 316.241C247.129 322.047 249.847 326.849 249.902 326.911C249.957 326.973 250.906 326.514 252.012 325.89L254.024 324.756L252.972 322.914C248.868 315.722 245.501 309.601 245.596 309.503C245.658 309.44 246.732 310.022 247.981 310.798C253.551 314.257 262.596 319.461 263.029 319.458C263.292 319.456 264.361 318.964 265.407 318.365L267.307 317.276L265.976 314.879C265.243 313.561 263.003 309.584 260.997 306.041C258.992 302.497 256.882 298.754 256.31 297.72C255.736 296.687 255.187 295.845 255.088 295.849C254.99 295.853 254.064 296.349 253.03 296.951ZM111.57 304.945C108.227 305.99 105.379 308.675 103.603 312.458C102.191 315.465 101.647 318.069 101.908 320.57C102.348 324.768 104.488 327.531 108.902 329.6C112.035 331.069 115.731 331.186 118.346 329.899C122.696 327.758 126.497 321.294 126.497 316.037C126.497 313.591 125.326 310.446 123.773 308.729C121.874 306.628 116.783 304.415 113.961 304.463C113.469 304.471 112.392 304.688 111.57 304.945ZM117.249 309.635C120.512 310.747 122.007 313.735 121.206 317.548C119.805 324.224 114.912 327.856 110.41 325.561C106.604 323.621 105.794 319.594 108.206 314.606C109.453 312.027 110.724 310.648 112.671 309.765C114.472 308.948 115.17 308.928 117.249 309.635ZM216.154 313.156C213.175 314.001 213.368 313.571 213 320.177C212.884 322.244 212.643 326.109 212.461 328.767C212.281 331.424 212.035 335.073 211.916 336.874L211.699 340.151L214.188 339.425L216.677 338.699L216.917 335.953L217.156 333.207L221.347 332.049C223.652 331.412 225.652 330.896 225.793 330.902C225.933 330.909 226.713 331.892 227.526 333.088C228.338 334.283 229.19 335.19 229.419 335.104C229.648 335.018 230.774 334.676 231.919 334.345C233.066 334.014 233.952 333.598 233.89 333.42C233.827 333.243 232.922 331.922 231.879 330.485C230.836 329.047 227.643 324.57 224.786 320.535C221.928 316.5 219.396 313.024 219.161 312.812C218.851 312.532 218.019 312.627 216.154 313.156ZM141.542 315.013C141.542 315.144 140.655 320.469 139.571 326.846C138.488 333.224 137.602 338.589 137.602 338.769C137.602 339.161 138.3 339.384 140.488 339.692L142.119 339.921L143.676 330.497C144.532 325.313 145.348 320.849 145.488 320.576C145.724 320.118 145.936 323.281 146.515 335.894L146.736 340.694L149.052 341.166C150.327 341.425 151.483 341.519 151.622 341.375C151.761 341.231 153.597 336.926 155.701 331.809C157.806 326.69 159.614 322.423 159.72 322.325C159.826 322.226 159.812 322.675 159.687 323.324C159.067 326.58 156.586 341.347 156.586 341.785C156.586 342.401 157.145 342.631 159.357 342.923L161.063 343.149L163.003 331.574C164.071 325.207 165.009 319.746 165.087 319.438C165.203 318.987 164.53 318.756 161.597 318.243C159.598 317.894 157.924 317.663 157.875 317.729C157.804 317.828 152.931 329.541 150.752 334.851L150.239 336.103L150.008 333.419C149.881 331.942 149.577 327.443 149.331 323.419L148.884 316.104L146.377 315.649C144.998 315.4 143.346 315.101 142.706 314.986C142.065 314.871 141.542 314.883 141.542 315.013ZM181.351 318.774C179.705 318.933 178.302 319.117 178.235 319.185C178.097 319.322 179.467 340.477 179.73 342.277L179.9 343.44H182.395H184.889L184.717 341.561C184.623 340.527 184.46 338.524 184.355 337.109L184.165 334.536L185.689 334.352C186.526 334.251 188.259 334.079 189.54 333.97C192.959 333.677 195.366 332.397 196.363 330.339C197.033 328.957 197.125 328.277 196.992 325.728C196.801 322.09 195.838 320.33 193.39 319.147C192.071 318.509 191.224 318.396 188.083 318.436C186.027 318.463 182.998 318.615 181.351 318.774ZM223.209 326.938C223.209 327.168 218.104 328.767 217.367 328.767C217.143 328.767 217.443 319.937 217.695 319.142C217.84 318.684 223.209 326.275 223.209 326.938ZM191.24 323.634C192.048 324.513 192.346 326.854 191.824 328.214C191.45 329.186 189.838 329.765 186.753 330.034L183.808 330.29L183.806 328.902C183.804 328.139 183.701 326.434 183.576 325.115L183.35 322.718L185.817 322.605C189.324 322.447 190.326 322.636 191.24 323.634Z" fill="#768AA0"/>
</g>
<defs>
<clipPath id="clip0_6025_40261">
<rect width="354" height="354" fill="white"/>
</clipPath>
</defs>
</svg>
